<svg xmlns="http://www.w3.org/2000/svg" width="250" height="100" viewBox="0 0 425 201" version="1.1"><path d="M 61.880 5.794 C 49.272 12.381, 46.231 29.141, 55.954 38.456 L 58.872 41.252 54.936 47.484 C 52.771 50.912, 51 54.032, 51 54.418 C 51 54.804, 54.263 52.897, 58.250 50.179 C 65.353 45.339, 65.623 45.249, 71.566 45.726 C 91.898 47.360, 104.288 25.308, 91.196 10.787 C 83.718 2.493, 72.015 0.499, 61.880 5.794 M 57 16.500 C 57 17.679, 58.389 18, 63.500 18 C 68.234 18, 70 18.360, 70 19.327 C 70 20.236, 69.043 20.513, 66.961 20.208 C 63.099 19.641, 60 22.289, 60 26.155 C 60 29.860, 63.211 33, 67 33 C 69.533 33, 70 33.389, 70 35.500 C 70 37.333, 70.533 38, 72 38 C 73.760 38, 74 37.333, 74 32.434 C 74 26.353, 75.256 23, 77.535 23 C 79.502 23, 79.475 28.361, 77.500 30 C 75.762 31.443, 75.691 31.963, 76.963 33.974 C 77.750 35.218, 78.284 35.082, 80.395 33.098 C 83.785 29.914, 84.629 25.609, 82.500 22.360 C 81.127 20.265, 80.207 19.874, 77.412 20.200 C 75.076 20.473, 74 20.189, 74 19.299 C 74 18.367, 75.835 18, 80.500 18 C 85.611 18, 87 17.679, 87 16.500 C 87 15.233, 84.667 15, 72 15 C 59.333 15, 57 15.233, 57 16.500 M 64.309 24.636 C 63.549 26.617, 65.135 29.386, 67.272 29.807 C 68.149 29.980, 69.121 29.194, 69.497 28.009 C 70.708 24.195, 65.722 20.954, 64.309 24.636" stroke="none" fill="#faf9f9" fill-rule="evenodd"/><path d="M 64.909 1.494 C 58.698 3.488, 51.572 9.936, 49.456 15.475 C 46.762 22.529, 47.752 31.776, 51.818 37.544 C 53.592 40.061, 54.745 42.656, 54.380 43.310 C 54.016 43.965, 51.252 48.459, 48.239 53.297 C 45.226 58.136, 42.951 62.285, 43.183 62.517 C 43.415 62.749, 48.572 59.620, 54.642 55.564 L 65.678 48.189 72.589 48.223 C 91.022 48.314, 102.868 33.641, 97.859 16.922 C 94.229 4.807, 78.104 -2.743, 64.909 1.494 M 61.880 5.794 C 49.272 12.381, 46.231 29.141, 55.954 38.456 L 58.872 41.252 54.936 47.484 C 52.771 50.912, 51 54.032, 51 54.418 C 51 54.804, 54.263 52.897, 58.250 50.179 C 65.353 45.339, 65.623 45.249, 71.566 45.726 C 91.898 47.360, 104.288 25.308, 91.196 10.787 C 83.718 2.493, 72.015 0.499, 61.880 5.794 M 57 16.500 C 57 17.679, 58.389 18, 63.500 18 C 68.234 18, 70 18.360, 70 19.327 C 70 20.236, 69.043 20.513, 66.961 20.208 C 63.099 19.641, 60 22.289, 60 26.155 C 60 29.860, 63.211 33, 67 33 C 69.533 33, 70 33.389, 70 35.500 C 70 37.333, 70.533 38, 72 38 C 73.760 38, 74 37.333, 74 32.434 C 74 26.353, 75.256 23, 77.535 23 C 79.502 23, 79.475 28.361, 77.500 30 C 75.762 31.443, 75.691 31.963, 76.963 33.974 C 77.750 35.218, 78.284 35.082, 80.395 33.098 C 83.785 29.914, 84.629 25.609, 82.500 22.360 C 81.127 20.265, 80.207 19.874, 77.412 20.200 C 75.076 20.473, 74 20.189, 74 19.299 C 74 18.367, 75.835 18, 80.500 18 C 85.611 18, 87 17.679, 87 16.500 C 87 15.233, 84.667 15, 72 15 C 59.333 15, 57 15.233, 57 16.500 M 64.309 24.636 C 63.549 26.617, 65.135 29.386, 67.272 29.807 C 68.149 29.980, 69.121 29.194, 69.497 28.009 C 70.708 24.195, 65.722 20.954, 64.309 24.636 M 6.200 38.200 C 4.315 40.085, 4.783 42.953, 7.500 46.182 L 10 49.153 10 71.536 L 10 93.919 7.412 96.319 C 5.697 97.909, 4.938 99.525, 5.162 101.109 L 5.500 103.500 26.500 103.783 C 48.812 104.084, 50.962 103.896, 53.430 101.427 C 55.513 99.344, 55.512 91.655, 53.429 89.571 C 51.227 87.370, 49.178 87.605, 44.936 90.544 C 41.639 92.829, 40.460 93.059, 33.382 92.794 L 25.500 92.500 25.230 70.583 L 24.960 48.665 27.480 45.029 C 30.447 40.747, 30.467 40.610, 28.429 38.571 C 26.447 36.590, 8.117 36.283, 6.200 38.200 M 196.114 38.633 C 193.502 40.462, 190.055 47.317, 190.022 50.750 C 190.002 52.817, 189.533 53.002, 184.250 53.022 C 174.767 53.058, 166.803 57.605, 162.903 65.210 C 160.643 69.617, 160.368 78.554, 162.347 83.282 C 163.788 86.725, 171.186 93.998, 173.253 94.004 C 173.939 94.006, 173.110 94.855, 171.411 95.891 C 167.895 98.035, 164 102.618, 164 104.612 C 164 107.838, 168.987 109.371, 180.864 109.797 C 187.264 110.026, 192.927 110.615, 193.448 111.105 C 194.031 111.653, 193.165 113.266, 191.198 115.296 C 186.983 119.645, 187.103 121.727, 191.681 123.640 C 200.630 127.379, 210 119.955, 210 109.125 C 210 103.490, 207.454 102.364, 193.451 101.807 C 180.805 101.303, 179.037 100.721, 181.590 97.901 C 182.762 96.605, 184.653 96, 187.529 96 C 196.411 96, 205.519 90.508, 208.619 83.282 C 209.379 81.512, 210 77.552, 210 74.482 C 210 66.064, 206.131 59.667, 198.750 55.882 C 194.464 53.684, 194.462 53.681, 196.571 51.571 C 197.605 50.538, 199.959 50, 203.449 50 C 209.318 50, 211.250 48.624, 211.250 44.444 C 211.250 40.332, 207.356 37, 202.548 37 C 200.291 37, 197.396 37.735, 196.114 38.633 M 122.500 54.519 C 120.850 55.348, 118.037 57.670, 116.250 59.679 C 113.097 63.225, 113 63.259, 113 60.841 C 113 56.554, 109.180 54, 102.767 54 C 99.685 54, 96.452 54.273, 95.582 54.607 C 93.203 55.520, 93.679 59.350, 96.500 62 C 98.946 64.298, 99 64.665, 99 79 C 99 93.335, 98.946 93.702, 96.500 96 C 93.508 98.810, 93.286 101.548, 95.934 102.965 C 99.146 104.683, 114.577 104.280, 116.429 102.429 C 118.576 100.281, 118.421 99.289, 115.373 95.666 C 112.896 92.723, 112.776 92.095, 113.283 84.700 C 114.206 71.240, 120.540 61.664, 127.385 63.382 C 131.656 64.454, 133 69.006, 133 82.395 C 133 93.428, 132.907 93.928, 130.500 95.821 C 127.517 98.168, 127.251 101.529, 129.934 102.965 C 133.146 104.683, 148.577 104.280, 150.429 102.429 C 152.561 100.296, 152.419 99.287, 149.500 95.818 C 147.080 92.942, 147 92.373, 147 78.071 C 147 64.375, 146.834 63.048, 144.730 59.898 C 143.482 58.029, 140.894 55.713, 138.980 54.752 C 134.705 52.604, 126.543 52.489, 122.500 54.519 M 236.239 54.335 C 231.361 56.104, 226.272 60.570, 223.750 65.295 C 220.503 71.378, 220.488 86.596, 223.724 92.653 C 228.156 100.952, 235.673 105.005, 246.616 104.994 C 255.007 104.986, 259.591 103.418, 264.531 98.865 C 269.790 94.017, 272 88.140, 272 79 C 272 75.346, 271.292 70.278, 270.426 67.737 C 268.507 62.104, 261.797 55.593, 256.355 54.081 C 251.346 52.691, 240.392 52.829, 236.239 54.335 M 63.750 55.080 C 61.297 56.509, 61.571 59.337, 64.500 62.818 C 66.908 65.680, 67 66.307, 67 79.901 C 67 93.708, 66.946 94.060, 64.500 96.187 C 61.510 98.787, 61.280 101.544, 63.934 102.965 C 64.998 103.534, 69.753 104, 74.500 104 C 82.984 104, 87 102.987, 87 100.847 C 87 100.251, 85.650 98.226, 84 96.347 L 81 92.930 81 75.538 L 81 58.145 78.365 56.073 C 75.471 53.796, 66.948 53.217, 63.750 55.080 M 179.521 62.388 C 176.398 65.511, 175.412 71.165, 176.820 77.879 C 178.184 84.379, 180.244 87.762, 183.622 89.046 C 191.662 92.103, 196.573 83.896, 194.032 71.652 C 191.856 61.172, 185.070 56.839, 179.521 62.388 M 241.321 61.189 C 237.993 62.798, 236.484 67.620, 236.638 76.156 C 236.880 89.491, 241.271 98, 247.912 98 C 254.560 98, 257.640 91.402, 256.634 79.316 C 255.395 64.418, 249.377 57.294, 241.321 61.189 M 108.173 113.429 C 98.725 116.498, 91.780 123.682, 88.466 133.814 C 86.029 141.265, 86.777 156.553, 89.930 163.727 C 94.802 174.814, 105.676 181, 120.294 181 C 124.815 181, 129.982 180.579, 131.776 180.064 C 134.862 179.179, 135.291 179.397, 139.657 184.064 C 144.845 189.611, 146.991 190.100, 150.545 186.545 C 154.261 182.830, 153.764 179.534, 149.016 176.392 C 144.862 173.643, 144.856 173.520, 148.589 168.500 C 152.752 162.903, 154.268 156.006, 153.809 144.755 C 153.458 136.165, 152.946 133.577, 150.655 128.818 C 147.548 122.365, 142.682 117.648, 136.051 114.662 C 130.213 112.032, 114.598 111.342, 108.173 113.429 M 350.962 115.250 C 346.545 117.477, 346.495 117.561, 346 123.500 L 345.500 129.500 341.799 129.807 C 337.812 130.139, 336.321 132.286, 337.500 136 C 337.993 137.553, 339.013 138, 342.067 138 L 346 138 346.004 155.250 C 346.007 170.727, 346.213 172.837, 348.004 175.775 C 350.393 179.692, 353.427 181, 360.131 181 C 367.843 181, 374 176.913, 374 171.794 C 374 168.003, 372.029 167.434, 367.284 169.855 C 360.882 173.121, 360.549 172.383, 360.163 154.085 L 359.826 138.095 366.663 137.798 L 373.500 137.500 373.500 134 L 373.500 130.500 366.750 130.204 L 360 129.909 360 121.454 C 360 113.312, 359.916 113, 357.712 113 C 356.453 113, 353.416 114.013, 350.962 115.250 M 114.741 121.418 C 109.885 123.165, 108.261 124.569, 106.029 128.944 C 103.252 134.386, 102.685 142.328, 104.391 151.892 C 106.839 165.621, 113.056 173, 122.175 173 C 127.345 173, 127.557 171.795, 122.983 168.411 C 118.663 165.215, 117.730 161.412, 120.571 158.571 C 122.968 156.175, 124.654 156.640, 129.384 161 C 131.771 163.200, 133.976 165, 134.284 165 C 135.728 165, 137.396 156.754, 137.329 149.943 C 137.129 129.695, 127.063 116.983, 114.741 121.418 M 244.419 130.837 C 235.141 135.188, 229.962 144.048, 230.044 155.428 C 230.126 166.739, 234.763 174.629, 243.745 178.741 C 248.537 180.934, 250.222 181.187, 257.526 180.803 C 267.957 180.256, 272.673 177.552, 276.554 169.894 C 280.479 162.148, 278.073 159.183, 272.544 164.954 C 266.300 171.471, 257.465 172.945, 252.035 168.376 C 250.320 166.933, 249.047 165.380, 249.208 164.925 C 249.369 164.471, 254.961 161.415, 261.635 158.133 C 268.309 154.852, 274.496 151.130, 275.385 149.861 C 279.108 144.545, 276.333 136.223, 269.409 131.944 C 264.072 128.645, 250.386 128.039, 244.419 130.837 M 299.132 130.281 C 290.706 132.974, 286.299 141.382, 289.101 149.420 C 290.812 154.330, 294.375 156.865, 304.744 160.548 C 309.010 162.064, 313.584 164.330, 314.909 165.584 C 317.224 167.775, 317.253 167.965, 315.647 170.416 C 312.163 175.733, 306.390 175.064, 298.983 168.485 C 293.599 163.703, 290.265 162.878, 287.499 165.644 C 283.892 169.251, 289.963 177.785, 297.656 179.921 C 304.026 181.690, 317.885 181.236, 322.579 179.104 C 330.210 175.638, 333.501 168.527, 330.641 161.684 C 328.820 157.325, 325.049 154.865, 315 151.480 C 303.006 147.440, 299.614 143.295, 304.392 138.517 C 308.247 134.663, 311.327 135.250, 317.406 141 C 324.747 147.942, 330 147.682, 330 140.377 C 330 136.108, 326.165 131.666, 321.193 130.176 C 316.419 128.746, 303.747 128.806, 299.132 130.281 M 166.250 130.977 C 163.272 132.246, 163.370 135.462, 166.500 139.182 C 168.900 142.034, 169 142.702, 169.002 155.827 C 169.003 166.848, 169.342 170.175, 170.752 172.980 C 173.385 178.222, 178.216 181, 184.698 181 C 191.073 181, 194.562 179.402, 198.852 174.516 C 201.814 171.142, 202 171.070, 202 173.291 C 202 174.589, 203.065 176.652, 204.366 177.874 C 206.420 179.804, 207.641 180.058, 213.616 179.799 C 220.313 179.508, 220.509 179.425, 220.819 176.726 C 221.032 174.872, 220.286 172.940, 218.569 170.899 C 216.033 167.886, 216 167.631, 216 150.996 L 216 134.145 213.365 132.073 C 210.731 130, 202.333 129.168, 198.582 130.607 C 196.174 131.531, 196.691 135.844, 199.627 139.333 C 202.070 142.237, 202.215 142.948, 201.698 149.478 C 200.428 165.526, 192.370 175.608, 186.150 168.931 C 183.486 166.071, 183 162.768, 183 147.530 C 183 135.546, 182.812 134.139, 180.985 132.486 C 178.669 130.390, 169.766 129.478, 166.250 130.977 M 247.659 139.054 C 246.223 140.183, 244.586 142.822, 244.022 144.918 C 242.818 149.389, 243.681 155, 245.572 155 C 247.931 155, 261.848 147.837, 262.429 146.325 C 262.739 145.516, 262.492 143.875, 261.879 142.678 C 258.987 137.021, 252.383 135.338, 247.659 139.054" stroke="none" fill="#12575F" fill-rule="evenodd"/></svg>